<svg width="20" height="20" viewBox="0 0 20 20" fill="none" xmlns="http://www.w3.org/2000/svg">
<path d="M9.73644 5.19304C7.07628 5.19304 4.92941 7.33992 4.92941 10.0001C4.92941 12.6602 7.07628 14.8071 9.73644 14.8071C12.3966 14.8071 14.5435 12.6602 14.5435 10.0001C14.5435 7.33992 12.3966 5.19304 9.73644 5.19304ZM9.73644 13.1243C8.01613 13.1243 6.61222 11.7204 6.61222 10.0001C6.61222 8.27976 8.01613 6.87586 9.73644 6.87586C11.4568 6.87586 12.8607 8.27976 12.8607 10.0001C12.8607 11.7204 11.4568 13.1243 9.73644 13.1243ZM14.7403 3.87586C14.1193 3.87586 13.6177 4.37742 13.6177 4.99851C13.6177 5.61961 14.1193 6.12117 14.7403 6.12117C15.3614 6.12117 15.863 5.62195 15.863 4.99851C15.8632 4.85103 15.8343 4.70496 15.7779 4.56867C15.7216 4.43238 15.6389 4.30855 15.5346 4.20426C15.4303 4.09998 15.3065 4.01729 15.1702 3.96094C15.0339 3.90458 14.8878 3.87567 14.7403 3.87586ZM19.1068 10.0001C19.1068 8.70632 19.1185 7.42429 19.0458 6.13289C18.9732 4.63289 18.631 3.30164 17.5341 2.20476C16.4349 1.10554 15.106 0.7657 13.606 0.693043C12.3122 0.620387 11.0302 0.632106 9.73878 0.632106C8.44503 0.632106 7.163 0.620387 5.8716 0.693043C4.3716 0.7657 3.04035 1.10789 1.94347 2.20476C0.844252 3.30398 0.504408 4.63289 0.431752 6.13289C0.359096 7.42664 0.370814 8.70867 0.370814 10.0001C0.370814 11.2915 0.359096 12.5759 0.431752 13.8673C0.504408 15.3673 0.846596 16.6985 1.94347 17.7954C3.04269 18.8946 4.3716 19.2344 5.8716 19.3071C7.16535 19.3798 8.44738 19.368 9.73878 19.368C11.0325 19.368 12.3146 19.3798 13.606 19.3071C15.106 19.2344 16.4372 18.8923 17.5341 17.7954C18.6333 16.6962 18.9732 15.3673 19.0458 13.8673C19.1208 12.5759 19.1068 11.2938 19.1068 10.0001ZM17.0443 15.5266C16.8732 15.9532 16.6669 16.2719 16.3364 16.6001C16.006 16.9305 15.6896 17.1368 15.263 17.3079C14.0302 17.7977 11.1028 17.6876 9.73644 17.6876C8.37003 17.6876 5.44035 17.7977 4.20753 17.3102C3.78097 17.1391 3.46222 16.9329 3.1341 16.6024C2.80363 16.272 2.59738 15.9555 2.42628 15.529C1.93878 14.2938 2.04894 11.3665 2.04894 10.0001C2.04894 8.63367 1.93878 5.70398 2.42628 4.47117C2.59738 4.04461 2.80363 3.72586 3.1341 3.39773C3.46456 3.06961 3.78097 2.86101 4.20753 2.68992C5.44035 2.20242 8.37003 2.31257 9.73644 2.31257C11.1028 2.31257 14.0325 2.20242 15.2653 2.68992C15.6919 2.86101 16.0107 3.06726 16.3388 3.39773C16.6693 3.7282 16.8755 4.04461 17.0466 4.47117C17.5341 5.70398 17.4239 8.63367 17.4239 10.0001C17.4239 11.3665 17.5341 14.2938 17.0443 15.5266Z" fill="#294F74"/>
</svg>
