<svg width="14" height="15" viewBox="0 0 14 15" fill="none" xmlns="http://www.w3.org/2000/svg">
<path d="M7.79335 5.6531C8.22657 5.85994 8.60382 6.16772 8.89342 6.55059C9.18302 6.93347 9.37651 7.38025 9.45764 7.8534C9.53876 8.32656 9.50515 8.81228 9.35963 9.26975C9.21411 9.72723 8.96093 10.1431 8.62135 10.4824L5.62135 13.4824C5.05874 14.045 4.29567 14.3611 3.50002 14.3611C2.70436 14.3611 1.9413 14.045 1.37869 13.4824C0.816073 12.9198 0.5 12.1568 0.5 11.3611C0.5 10.5654 0.816073 9.80238 1.37869 9.23977L2.55002 8.06844M11.45 7.65377L12.6213 6.48244C13.184 5.91982 13.5 5.15676 13.5 4.3611C13.5 3.56545 13.184 2.80238 12.6213 2.23977C12.0587 1.67716 11.2957 1.36108 10.5 1.36108C9.70436 1.36108 8.9413 1.67716 8.37868 2.23977L5.37868 5.23977C5.03911 5.5791 4.78593 5.99498 4.64041 6.45245C4.49488 6.90992 4.46127 7.39564 4.5424 7.8688C4.62352 8.34196 4.81701 8.78874 5.10661 9.17161C5.39621 9.55448 5.77347 9.86226 6.20669 10.0691" stroke="#667085" stroke-linecap="round" stroke-linejoin="round"/>
</svg>
