<svg width="42" height="37" viewBox="0 0 42 37" fill="none" xmlns="http://www.w3.org/2000/svg">
<path fill-rule="evenodd" clip-rule="evenodd" d="M37.5816 18.4632C37.5816 18.033 37.4108 17.6205 37.1066 17.3164C36.8025 17.0122 36.39 16.8414 35.9598 16.8414H5.68602C5.25589 16.8414 4.84337 17.0122 4.53923 17.3164C4.23508 17.6205 4.06421 18.033 4.06421 18.4632C4.06421 18.8933 4.23508 19.3058 4.53923 19.61C4.84337 19.9141 5.25589 20.085 5.68602 20.085H35.9598C36.39 20.085 36.8025 19.9141 37.1066 19.61C37.4108 19.3058 37.5816 18.8933 37.5816 18.4632ZM37.5816 7.65111C37.5816 7.22098 37.4108 6.80846 37.1066 6.50431C36.8025 6.20017 36.39 6.0293 35.9598 6.0293H5.68602C5.25589 6.0293 4.84337 6.20017 4.53923 6.50431C4.23508 6.80846 4.06421 7.22098 4.06421 7.65111C4.06421 8.08124 4.23508 8.49375 4.53923 8.7979C4.84337 9.10205 5.25589 9.27292 5.68602 9.27292H35.9598C36.39 9.27292 36.8025 9.10205 37.1066 8.7979C37.4108 8.49375 37.5816 8.08124 37.5816 7.65111ZM37.5816 29.2753C37.5816 28.8451 37.4108 28.4326 37.1066 28.1285C36.8025 27.8243 36.39 27.6534 35.9598 27.6534H5.68602C5.25589 27.6534 4.84337 27.8243 4.53923 28.1285C4.23508 28.4326 4.06421 28.8451 4.06421 29.2753C4.06421 29.7054 4.23508 30.1179 4.53923 30.422C4.84337 30.7262 5.25589 30.8971 5.68602 30.8971H35.9598C36.39 30.8971 36.8025 30.7262 37.1066 30.422C37.4108 30.1179 37.5816 29.7054 37.5816 29.2753Z" fill="#294F74"/>
</svg>
