<svg version="1.2" xmlns="http://www.w3.org/2000/svg" viewBox="0 0 878 147" width="878" height="147"><style>.a{fill:#294f74}</style><path fill-rule="evenodd" class="a" d="m62.2 30c39.1 0 62.7 23.5 62.7 59.5 0 36-23.6 59.4-62.7 59.4-38.2 0-62-23.4-62-59.4 0-36 23.8-59.5 62-59.5zm0 24.9c-25.3 0-34.6 8.9-34.6 34.6 0 25.7 9.3 34.6 34.6 34.6 25.3 0 35.2-8.9 35.2-34.6 0-25.7-9.9-34.6-35.2-34.6zm72.3 6h23.9v23.6h1.8c3.1-16.6 14.1-25.3 34.4-25.3 26.6 0 41.4 17.5 41.4 44.9 0 27.4-14.5 44.8-40.5 44.8-20 0-31-9.8-34-24.9h-1.2v52.5h-25.8zm75.3 43.3c0-15.9-7.8-21.2-24.1-21.2-16.8 0-25.4 5.6-25.4 21v1.4c0 14.8 9 20 25.2 20 16.5 0 24.3-5.6 24.3-21.2zm81 44.8c-28.7 0-48.4-14.2-48.4-44.8 0-27.6 19.5-45 47.9-45 28.3 0 47.1 14.8 47.1 41.9 0 2.6-0.3 4.6-0.6 6.9q0 0.6-0.1 1.3h-70.3c0.7 13.3 6.9 19 23.6 19 15.3 0 20.7-4 20.7-11.4v-1.7h25.8v1.9c0 18.8-18.3 31.9-45.7 31.9zm-1-69.7c-15.3 0-21.9 5.2-23.1 16.4h45.8c-0.6-11.4-7.5-16.4-22.7-16.4zm56.8-18.4h24v26.5h1.5c2.2-14.4 12.6-28.2 35.2-28.2 23.6 0 34.8 15.1 34.8 34.3v53.7h-25.9v-45.1c0-13.8-5.7-19.7-21.5-19.7-16.4 0-22.3 6.6-22.3 21.2v43.6h-25.8zm290.9 88.1c-29.5 0-49.3-17.6-49.3-44.8 0-27.6 19.8-45 49.3-45 29.5 0 49.3 17.4 49.3 45 0 27.2-19.8 44.8-49.3 44.8zm0-22.9c17.4 0 23.6-6.8 23.6-21.9 0-15.2-6.2-22.2-23.6-22.2-17.6 0-23.6 7-23.6 22.2 0 15.1 6 21.9 23.6 21.9zm84 21.2h-25.9v-86.4h24v23h1.5c2.4-14 11.6-24.7 29-24.7 19.3 0 27.2 13.3 27.2 30.2v14.3h-25.8v-9c0-9.5-3.8-13.6-14.3-13.6-11.6 0-15.7 5.3-15.7 16.2zm108.8-88.1c28.2 0 47 14.9 47 41.9 0 2.6-0.2 4.6-0.5 6.9q-0.1 0.4-0.1 0.8-0.1 0.3-0.1 0.6h-70.3c0.7 13.3 6.9 18.9 23.6 18.9 15.4 0 20.7-3.9 20.7-11.3v-1.8h25.8v1.9c0 18.8-18.2 31.9-45.6 31.9-28.8 0-48.4-14.1-48.4-44.8 0-27.6 19.4-45 47.9-45zm22.2 36.6c-0.7-11.4-7.6-16.4-22.8-16.4-15.3 0-21.8 5.2-23 16.4z"/><path fill-rule="evenodd" class="a" d="m455.5 91.2c0 36.6 23.9 60.3 62.6 60.3 36.5 0 59.7-18.2 59.7-47.9 0-1.4-1.1-2.6-2.6-2.6h-23.9c-1.5 0-2.7 1.2-2.7 2.6 0 15.4-8.7 22.8-30 22.8-25.7 0-37.9-8.9-37.9-34.9 0-26.1 12.2-35.4 37.9-35.4 21.3 0 30 7.3 30 22.7 0 1.5 1.2 2.6 2.7 2.6h23.9c1.5 0 2.6-1.1 2.6-2.6 0-29.7-23.4-47.9-59.7-47.9-38.7 0-62.6 23.8-62.6 60.3z"/><path class="a" d="m499.4 91.2c0-12.7 4.7-17.1 17.2-17.1 12.6 0 17.3 4.4 17.3 17.1 0 12.7-4.7 17.1-17.3 17.1-12.5 0-17.2-4.4-17.2-17.1z"/></svg>