<svg width="19" height="16" viewBox="0 0 19 16" fill="none" xmlns="http://www.w3.org/2000/svg">
<path d="M18.1821 0.741281L18.787 0.701358C18.7791 0.582603 18.7364 0.468804 18.6642 0.374207C18.592 0.27961 18.4934 0.208419 18.381 0.169546C18.2685 0.130673 18.147 0.125846 18.0318 0.155669C17.9166 0.185493 17.8128 0.248641 17.7333 0.337208L18.1821 0.741281ZM17.5796 4.32108C17.5796 4.16065 17.5159 4.00679 17.4025 3.89335C17.289 3.77991 17.1352 3.71618 16.9748 3.71618C16.8143 3.71618 16.6605 3.77991 16.5471 3.89335C16.4336 4.00679 16.3699 4.16065 16.3699 4.32108H17.5796ZM1.27236 14.0491V13.4442C1.14248 13.444 1.016 13.4857 0.911628 13.563C0.807256 13.6403 0.730536 13.7491 0.692817 13.8734C0.655099 13.9977 0.658385 14.1308 0.70219 14.2531C0.745995 14.3754 0.827992 14.4803 0.936051 14.5523L1.27236 14.0491ZM2.47968 0.741281L3.04704 0.529566C3.00581 0.419121 2.93321 0.323131 2.83816 0.253398C2.74311 0.183665 2.62975 0.143229 2.51203 0.137059C2.39431 0.13089 2.27735 0.159257 2.17553 0.218674C2.07371 0.27809 1.99147 0.365965 1.93892 0.471496L2.47968 0.741281ZM7.31137 11.6295L7.73962 12.0565C7.81228 11.9836 7.86513 11.8934 7.89319 11.7944C7.92125 11.6954 7.92358 11.5908 7.89996 11.4907C7.87634 11.3905 7.82756 11.298 7.75822 11.2219C7.68888 11.1459 7.60129 11.0888 7.50372 11.056L7.31137 11.6295ZM16.0505 1.91842L15.6029 2.32491L15.8207 2.56566L16.1413 2.51727L16.0505 1.91842ZM17.5796 0.781204C17.6413 1.72243 17.5833 2.29345 17.4308 2.72414C17.2832 3.14152 17.0244 3.4851 16.5562 3.93394L17.3933 4.80742C17.9232 4.2993 18.3321 3.80086 18.5716 3.12821C18.8051 2.46766 18.8535 1.70307 18.787 0.701358L17.5796 0.781204ZM17.5796 5.20181V4.32108H16.3699V5.20302H17.5796V5.20181ZM9.12356 4.42028V5.58048H10.3333V4.42028H9.12356ZM9.12356 5.58048V6.18538H10.3333V5.58048H9.12356ZM13.4 0.136381C12.8378 0.136699 12.2811 0.247757 11.7618 0.463215C11.2425 0.678673 10.7707 0.994311 10.3734 1.39211C9.97606 1.7899 9.66097 2.26207 9.44611 2.78164C9.23125 3.30122 9.12082 3.85803 9.12114 4.42028H10.3309C10.3306 4.0168 10.4097 3.61721 10.5639 3.24433C10.718 2.87146 10.9441 2.53261 11.2292 2.24714C11.5143 1.96167 11.8529 1.73517 12.2256 1.58058C12.5983 1.42599 12.9977 1.34634 13.4012 1.34618V0.136381H13.4ZM16.3687 5.20181C16.3699 10.4233 12.1443 14.654 6.93393 14.654V15.8638C12.8133 15.8638 17.5796 11.0899 17.5796 5.20181H16.3687ZM1.91352 0.952996C2.57162 2.70962 5.03948 6.18538 9.72843 6.18538V4.97558C5.71694 4.97558 3.59627 1.99947 3.04584 0.529566L1.91352 0.952996ZM1.93892 0.471496C0.672328 3.00723 0.47756 5.46797 1.39817 7.56334C2.31636 9.65266 4.29187 11.2593 7.12023 12.2029L7.50372 11.056C4.89674 10.185 3.24786 8.76709 2.50508 7.07579C1.76472 5.39054 1.87239 3.31331 3.02164 1.01107L1.93892 0.471496ZM6.88313 11.2024C6.15486 11.9319 3.96524 13.4442 1.27236 13.4442V14.654C4.37655 14.654 6.85772 12.9409 7.73962 12.0565L6.88313 11.2024ZM16.4993 1.51313C16.1082 1.07936 15.6303 0.732647 15.0966 0.49547C14.5629 0.258294 13.9852 0.135953 13.4012 0.136381V1.34618C14.2734 1.34618 15.0585 1.72243 15.6029 2.32491L16.4993 1.51313ZM16.1413 2.51727C17.1049 2.35983 17.9849 1.87537 18.6333 1.14535L17.7333 0.337208C17.272 0.858316 16.6461 1.20548 15.9598 1.32077L16.1413 2.51727ZM0.936051 14.5523C2.92123 15.8759 5.00198 15.8638 6.93393 15.8638V14.654C4.96206 14.654 3.24665 14.6407 1.60867 13.5458L0.936051 14.5523Z" fill="#294F74"/>
</svg>
